{"title":"Ladies vs. Ricky Bahl (2011) x264 DVDScr (Audio Cleaned)","uid":6898989,"size":590414946,"categoryP":"video","categoryS":"movies","magnet":"?xt=urn:btih:e0cdfa97269019acc61df2b9f35923ed7549c6aa&amp;dn=Ladies+vs.+Ricky+Bahl+%282011%29+x264+DVDScr+%28Audio+Cleaned%29&amp;tr=udp%3A%2F%2Ftracker.openbittorrent.com%3A80&amp;tr=udp%3A%2F%2Fopen.demonii.com%3A1337&amp;tr=udp%3A%2F%2Ftracker.coppersurfer.tk%3A6969&amp;tr=udp%3A%2F%2Fexodus.desync.com%3A6969","seeders":0,"leechers":0,"uploader":"mstaneja","files":1,"time":1324317960,"description":"[CENTER][COLOR=#808000]Ladies vs. Ricky Bahl (2011) x264 DVDScr (Audio Cleaned) [ExDe$][/COLOR]\n\n[IMG]http://www.djsrk.com/wp-content/uploads/2011/11/ladiesvsrickybahl1.jpg[/IMG]\n\nQuote\n Format                           : Matroska\nFile size                        : 563 MiB\nDuration                         : 2h 8mn\nOverall bit rate                 : 613 Kbps\nMovie name                       : Avidemux\nEncoded date                     : UTC 2011-12-19 13:49:35\nWriting application              : mkvmerge v4.4.0 ('Die Wiederkehr') built on Oct 31 2010 21:52:48\nWriting library                  : libebml v1.0.0 + libmatroska v1.0.0\n\nVideo\nID                               : 1\nFormat                           : AVC\nFormat/Info                      : Advanced Video Codec\nFormat profile                   : &lt;a class=&quot;__cf_email__&quot; href=&quot;/cdn-cgi/l/email-protection&quot; data-cfemail=&quot;ca82a3ada28a86f8e4fb&quot;&gt;[email&amp;#160;protected]&lt;/a&gt;&lt;script cf-hash='f9e31' type=&quot;text/javascript&quot;&gt;\n/* &lt;![CDATA[ */!function(){try{var t=&quot;currentScript&quot;in document?document.currentScript:function(){for(var t=document.getElementsByTagName(&quot;script&quot;),e=t.length;e--;)if(t[e].getAttribute(&quot;cf-hash&quot;))return t[e]}();if(t&amp;&amp;t.previousSibling){var e,r,n,i,c=t.previousSibling,a=c.getAttribute(&quot;data-cfemail&quot;);if(a){for(e=&quot;&quot;,r=parseInt(a.substr(0,2),16),n=2;a.length-n;n+=2)i=parseInt(a.substr(n,2),16)^r,e+=String.fromCharCode(i);e=document.createTextNode(e),c.parentNode.replaceChild(e,c)}}}catch(u){}}();/* ]]&gt; */&lt;/script&gt;\nFormat settings, CABAC           : Yes\nFormat settings, ReFrames        : 4 frames\nMuxing mode                      : Header stripping\nCodec ID                         : V_MPEG4/ISO/AVC\nDuration                         : 2h 8mn\nBit rate                         : 520 Kbps\nWidth                            : 656 pixels\nHeight                           : 272 pixels\nDisplay aspect ratio             : 2.40:1\nFrame rate mode                  : Variable\nFrame rate                       : 23.976 fps\nColor space                      : YUV\nChroma subsampling               : 4:2:0\nBit depth                        : 8 bits\nScan type                        : Progressive\nBits/(Pixel*Frame)               : 0.122\nStream size                      : 478 MiB (85%)\n\nAudio\nID                               : 2\nFormat                           : MPEG Audio\nFormat version                   : Version 2\nFormat profile                   : Layer 3\nMode                             : Joint stereo\nMode extension                   : Intensity Stereo + MS Stereo\nMuxing mode                      : Header stripping\nCodec ID                         : A_MPEG/L3\nCodec ID/Hint                    : MP3\nDuration                         : 2h 8mn\nBit rate mode                    : Constant\nBit rate                         : 80.0 Kbps\nChannel(s)                       : 2 channels\nSampling rate                    : 24.0 KHz\nCompression mode                 : Lossy\nDelay relative to video          : -42ms\nStream size                      : 73.5 MiB (13%)\n\n\n\n\n\n[IMG]http://i.imgur.com/AISM2.png[/IMG]\n[IMG]http://i.imgur.com/A3mBr.png[/IMG]\n[IMG]http://i.imgur.com/C797e.png[/IMG]\n[IMG]http://i.imgur.com/nI0vA.png[/IMG]\n[IMG]http://i.imgur.com/xSjZs.png[/IMG]\n[IMG]http://i.imgur.com/8t7hq.png[/IMG]\n[IMG]http://i.imgur.com/YnyoM.png[/IMG]\n[IMG]http://i.imgur.com/P45IN.png[/IMG]\n[IMG]http://i.imgur.com/THYtY.png[/IMG]\n[IMG]http://i.imgur.com/fO3ex.png[/IMG]\n[IMG]http://i.imgur.com/daDfh.png[/IMG][/CENTER]","torrent":{"xt":"urn:btih:e0cdfa97269019acc61df2b9f35923ed7549c6aa","amp;dn":"Ladies+vs.+Ricky+Bahl+%282011%29+x264+DVDScr+%28Audio+Cleaned%29","amp;tr":["udp%3A%2F%2Ftracker.openbittorrent.com%3A80","udp%3A%2F%2Fopen.demonii.com%3A1337","udp%3A%2F%2Ftracker.coppersurfer.tk%3A6969","udp%3A%2F%2Fexodus.desync.com%3A6969"],"infoHash":"e0cdfa97269019acc61df2b9f35923ed7549c6aa","infoHashBuffer":{"type":"Buffer","data":[224,205,250,151,38,144,25,172,198,29,242,185,243,89,35,237,117,73,198,170]},"announce":[],"urlList":[]}}